<?xml version="1.0" encoding="utf-8"?>
<!-- Generator: Adobe Illustrator 27.8.1, SVG Export Plug-In . SVG Version: 6.00 Build 0)  -->
<svg version="1.1" id="Lag_1" xmlns="http://www.w3.org/2000/svg" xmlns:xlink="http://www.w3.org/1999/xlink" x="0px" y="0px"
	 viewBox="0 0 485 512" style="enable-background:new 0 0 485 512;" xml:space="preserve">
<path d="M28.3,181.1c0.2,50.3,25,126.3,25,126.3l98-0.4c-0.2-37.9,12-60.1,24.2-82.2s24.3-44.3,24.2-82.2
	C199.5,97.9,186.9,3.5,125.6,3.7S28,105.2,28.3,181.1z M102.8,408.2c27-0.1,48.9-22.9,48.8-50.7l-0.1-25.3l-98,0.4l0.1,25.3
	C53.7,385.7,75.8,408.3,102.8,408.2z M420.9,280.5c-0.3-75.8-37.5-176.7-98.8-176.5s-73.1,94.8-73,139.3c0.2,37.9,12.5,60,24.9,82
	c12.3,22.1,24.7,44.1,24.9,82l98-0.4C396.9,407,421.1,330.8,420.9,280.5z M348.3,508.3c27-0.1,48.9-22.9,48.8-50.7l-0.1-25.3
	l-98,0.4l0.1,25.3C299.2,485.8,321.3,508.4,348.3,508.3z"/>
</svg>
